<svg width="25" height="28" viewBox="0 0 25 28" fill="none" xmlns="http://www.w3.org/2000/svg">
<path d="M22.0714 0H2.92857C1.31429 0 0 1.28612 0 2.87978V21.7801C0 23.3738 1.31429 24.6599 2.92857 24.6599H19.1286L18.3714 22.0737L20.2 23.7372L21.9286 25.3029L25 27.959V2.87978C25 1.28612 23.6857 0 22.0714 0ZM16.5571 18.2573C16.5571 18.2573 16.0429 17.6561 15.6143 17.1249C17.4857 16.6077 18.2 15.4614 18.2 15.4614C17.6143 15.8388 17.0571 16.1044 16.5571 16.2861C15.8429 16.5797 15.1571 16.7754 14.4857 16.8873C13.1143 17.1389 11.8571 17.069 10.7857 16.8733C9.97143 16.7195 9.27143 16.4958 8.68571 16.2722C8.35714 16.1463 8 15.9926 7.64286 15.7969C7.6 15.7689 7.55714 15.7549 7.51429 15.727C7.48571 15.713 7.47143 15.699 7.45714 15.685C7.2 15.5452 7.05714 15.4474 7.05714 15.4474C7.05714 15.4474 7.74286 16.5657 9.55714 17.097C9.12857 17.6282 8.6 18.2573 8.6 18.2573C5.44286 18.1594 4.24286 16.1324 4.24286 16.1324C4.24286 11.631 6.3 7.98231 6.3 7.98231C8.35714 6.47252 10.3143 6.51446 10.3143 6.51446L10.4571 6.68221C7.88571 7.40915 6.7 8.51353 6.7 8.51353C6.7 8.51353 7.01429 8.34577 7.54286 8.10812C9.07143 7.45108 10.2857 7.26935 10.7857 7.22741C10.8714 7.21343 10.9429 7.19945 11.0286 7.19945C11.9 7.08762 12.8857 7.05966 13.9143 7.17149C15.2714 7.32527 16.7286 7.7167 18.2143 8.51353C18.2143 8.51353 17.0857 7.46506 14.6571 6.73813L14.8571 6.51446C14.8571 6.51446 16.8143 6.47252 18.8714 7.98231C18.8714 7.98231 20.9286 11.631 20.9286 16.1324C20.9286 16.1324 19.7143 18.1594 16.5571 18.2573ZM9.91429 11.7288C9.1 11.7288 8.45714 12.4278 8.45714 13.2805C8.45714 14.1333 9.11429 14.8323 9.91429 14.8323C10.7286 14.8323 11.3714 14.1333 11.3714 13.2805C11.3857 12.4278 10.7286 11.7288 9.91429 11.7288ZM15.1286 11.7288C14.3143 11.7288 13.6714 12.4278 13.6714 13.2805C13.6714 14.1333 14.3286 14.8323 15.1286 14.8323C15.9429 14.8323 16.5857 14.1333 16.5857 13.2805C16.5857 12.4278 15.9429 11.7288 15.1286 11.7288Z" fill="white"/>
</svg>
