<svg width="173" height="44" viewBox="0 0 173 44" fill="none" xmlns="http://www.w3.org/2000/svg">
<g clip-path="url(#clip0)">
<path d="M16.4313 10.5492H26.2811L13.9119 25.5845L26.2294 41.6745H16.2208L8.21394 30.5517L7.93784 30.9158V41.6848H0V10.5492H7.93784V22.067L16.4313 10.5492Z" fill="#34F5C6"/>
<path d="M75.1744 10.5492C81.4487 10.5492 87.3158 13.7163 87.3158 20.954V31.431C87.3158 38.5966 81.4487 41.7363 75.1709 41.6745H63.4678V10.5492H75.1744ZM75.4367 34.289C78.1321 34.289 79.3676 32.915 79.3676 30.9055V21.1876C79.3676 19.1678 78.0872 17.8934 75.4367 17.8934H71.4194V34.289H75.4367Z" fill="#34F5C6"/>
<path d="M95.5331 3.70492e-06C96.0985 -0.0107275 96.6603 0.0922047 97.1848 0.302638C97.7093 0.513072 98.1857 0.82668 98.5856 1.22469C98.9855 1.6227 99.3006 2.09692 99.512 2.61898C99.7234 3.14103 99.8268 3.70018 99.8161 4.26294C99.8334 4.83033 99.7349 5.39532 99.5266 5.92375C99.3183 6.45218 99.0045 6.93307 98.6041 7.33734C98.2038 7.7416 97.7252 8.06085 97.1973 8.27576C96.6695 8.49068 96.1033 8.5968 95.5331 8.58772C94.9593 8.59877 94.3891 8.49512 93.8563 8.28291C93.3234 8.0707 92.8388 7.75423 92.4311 7.35225C92.0234 6.95027 91.7008 6.47094 91.4825 5.94266C91.2643 5.41437 91.1547 4.84787 91.1604 4.27668C91.1579 3.70798 91.2699 3.14456 91.4898 2.61963C91.7096 2.0947 92.0328 1.61891 92.4404 1.22031C92.8479 0.821713 93.3316 0.508381 93.8627 0.298795C94.3939 0.08921 94.9618 -0.0123846 95.5331 3.70492e-06ZM99.464 41.6745H91.5573V10.5491H99.464V41.6745Z" fill="#34F5C6"/>
<path d="M126.274 10.5492L127.951 13.1873L114.491 34.5089L127.212 34.4196V41.6745H104.013L102.557 38.7718L116.072 17.8625H103.537V10.5492H126.274Z" fill="#34F5C6"/>
<path d="M135.106 -4.27954e-06C135.672 -0.010721 136.234 0.0921955 136.758 0.30259C137.283 0.512985 137.76 0.826538 138.16 1.2245C138.56 1.62246 138.875 2.09665 139.087 2.61872C139.299 3.14078 139.403 3.7 139.392 4.26294C139.409 4.83049 139.31 5.39555 139.102 5.924C138.893 6.45244 138.579 6.93329 138.178 7.33751C137.778 7.74172 137.299 8.06091 136.771 8.27579C136.243 8.49067 135.676 8.59678 135.106 8.58771C133.962 8.58771 132.865 8.13532 132.056 7.33007C131.247 6.52481 130.792 5.43265 130.792 4.29385C130.792 3.15505 131.247 2.06289 132.056 1.25764C132.865 0.452383 133.962 -4.27954e-06 135.106 -4.27954e-06ZM139.037 41.6744H131.147V10.5491H139.054L139.037 41.6744Z" fill="#34F5C6"/>
<path d="M143.981 10.5492H151.888L158.47 25.7632L165.096 10.5526H172.999V41.6779H165.062L165.106 32.7089L165.59 26.4227L165.327 26.3815L161.207 37.0577H155.774L151.581 26.378L151.36 26.4193L151.888 32.7055V41.6745H143.981V10.5492Z" fill="#34F5C6"/>
<path d="M34.8914 19.58C37.573 20.9884 40.5549 22.5994 43.0329 23.9563V33.9867L24.5273 22.328V16.8319L43.0329 5.00491V15.0148L34.8914 19.58Z" fill="#34F5C6"/>
<path d="M51.1786 29.4043C48.5004 27.9959 45.5151 26.3849 43.0371 25.0246V15.0113L61.5461 26.6906V32.1867L43.0371 44V33.9833L51.1786 29.4043Z" fill="#34F5C6"/>
</g>
<defs>
<clipPath id="clip0">
<rect width="173" height="44" fill="white"/>
</clipPath>
</defs>
</svg>
